<?xml version="1.0" encoding="utf-8"?>
<svg width="315.5px" height="350.3px" id="screenshot-49e27736-5831-8072-8003-8021637b2e4f" viewBox="-112.4 -102.4 317.014 352.567" style="-webkit-print-color-adjust: exact;" fill="none" version="1.1" xmlns="http://www.w3.org/2000/svg">
  <g id="shape-49e27736-5831-8072-8003-8021637b2e4f" rx="0" ry="0" filter="url(#filter_rumext-id-1)" style="fill: rgb(0, 0, 0);" transform="matrix(1, 0, 0, 1, -110.876869, -100.019234)">
    <defs>
      <filter id="filter_rumext-id-1" x="-0.3419637093368681" y="-0.3019958841645327" width="1.683927418673736" height="1.6621258340771317" filterUnits="objectBoundingBox" color-interpolation-filters="sRGB">
        <feFlood flood-opacity="0" result="BackgroundImageFix"/>
        <feColorMatrix in="SourceAlpha" type="matrix" values="0 0 0 0 0 0 0 0 0 0 0 0 0 0 0 0 0 0 127 0"/>
        <feOffset dx="0" dy="9.707448288594465"/>
        <feGaussianBlur stdDeviation="0"/>
        <feColorMatrix type="matrix" values="0 0 0 0 0.9607843137254902 0 0 0 0 0.7490196078431373 0 0 0 0 0.07058823529411765 0 0 0 1 0"/>
        <feBlend mode="normal" in2="BackgroundImageFix" result="filter_1690f01f-f710-803e-8003-80acfb3d53af"/>
        <feBlend mode="normal" in="SourceGraphic" in2="filter_1690f01f-f710-803e-8003-80acfb3d53af" result="shape"/>
      </filter>
    </defs>
    <g id="shape-49e27736-5831-8072-8003-8021637d8a8f">
      <g class="fills" id="fills-49e27736-5831-8072-8003-8021637d8a8f">
        <path rx="0" ry="0" d="M134.308,282.355C134.308,282.355,132.777,294.818,129.934,304.220C127.528,312.185,123.716,318.338,123.372,326.522C123.091,333.269,128.403,338.516,153.337,338.985C174.521,339.360,181.864,332.707,181.207,323.523C180.582,314.996,176.958,308.593,174.990,298.754C173.584,291.663,172.584,283.229,172.584,283.229L134.308,282.355ZZ" style="fill: rgb(131, 93, 78);"/>
      </g>
      <g id="strokes-49e27736-5831-8072-8003-8021637d8a8f" class="strokes">
        <g class="stroke-shape">
          <path rx="0" ry="0" d="M134.308,282.355C134.308,282.355,132.777,294.818,129.934,304.220C127.528,312.185,123.716,318.338,123.372,326.522C123.091,333.269,128.403,338.516,153.337,338.985C174.521,339.360,181.864,332.707,181.207,323.523C180.582,314.996,176.958,308.593,174.990,298.754C173.584,291.663,172.584,283.229,172.584,283.229L134.308,282.355ZZ" style="fill: none; stroke-width: 2.91223; stroke: rgb(0, 0, 0); stroke-opacity: 1;"/>
        </g>
      </g>
    </g>
    <g id="shape-3283237e-8882-80f7-8003-80b4c7bc065e" rx="0" ry="0">
      <g id="shape-49e27736-5831-8072-8003-802163800786">
        <g class="fills" id="fills-49e27736-5831-8072-8003-802163800786">
          <path rx="0" ry="0" d="M162.898,37.749L108.312,57.990L72.005,64.237C72.005,64.237,67.662,69.734,73.317,76.200C77.410,80.854,84.284,84.196,93.689,84.290C104.281,84.384,108.562,80.230,109.749,83.759C110.937,87.289,96.314,96.004,88.284,100.720C80.254,105.437,54.008,113.558,52.852,125.302C51.977,134.330,60.975,140.327,65.412,141.732C71.068,143.513,79.098,143.138,81.441,143.388C83.784,143.638,84.503,148.104,81.191,150.916C77.879,153.758,68.943,156.819,62.819,159.162C56.695,161.504,31.699,169.782,28.387,171.188C25.075,172.593,21.325,178.497,24.137,187.211C26.981,195.926,37.104,202.517,46.290,205.828C55.476,209.139,58.070,207.702,58.070,207.702C58.070,207.702,56.789,212.700,52.195,216.854C47.602,221.008,33.073,236.470,33.073,236.470C33.073,236.470,5.609,237.188,3.203,239.156C0.797,241.124,-0.734,245.934,0.359,250.526C1.453,255.117,4.953,266.706,26.824,273.047C48.696,279.387,63.350,273.047,63.350,273.047C63.350,273.047,56.101,286.978,72.755,293.600C85.316,298.597,104.469,292.725,109.281,291.413C114.092,290.101,130.934,283.105,130.934,283.105C130.934,283.105,135.527,294.099,154.118,294.912C173.802,295.786,187.581,286.166,187.581,286.166C187.581,286.166,214.827,302.814,235.699,294.037C250.791,287.696,245.979,272.609,245.979,272.609C245.979,272.609,272.444,277.201,291.691,269.548C310.938,261.896,314.000,251.400,314.000,246.153C314.000,240.905,306.345,236.470,302.845,236.688C299.346,236.907,289.066,235.658,282.942,233.034C276.818,230.410,268.569,226.131,268.569,226.131C268.569,226.131,254.259,221.446,244.885,213.356C240.980,210.013,241.386,206.577,247.073,206.359C252.759,206.140,270.007,206.296,279.880,199.143C290.254,191.616,290.254,184.900,289.722,181.870C288.941,177.528,284.317,175.779,284.317,175.779C284.317,175.779,244.698,163.285,243.823,162.192C242.948,161.098,236.605,153.883,235.949,153.227C235.293,152.571,224.138,148.417,226.544,145.137C228.950,141.857,241.605,141.764,248.854,134.205C257.321,125.365,254.978,117.369,252.134,114.308C249.291,111.246,244.167,109.653,244.167,109.653C244.167,109.653,234.543,112.496,231.262,110.965C227.982,109.435,212.359,94.442,212.359,94.442C212.359,94.442,199.080,87.039,199.236,84.790C199.455,81.729,212.859,84.884,223.951,81.292C233.918,78.074,233.543,71.203,232.918,68.610C231.950,64.549,228.357,62.863,225.951,61.113C223.514,59.395,162.898,37.749,162.898,37.749ZZ" style="fill: rgb(10, 124, 31);"/>
        </g>
        <g id="strokes-49e27736-5831-8072-8003-802163800786" class="strokes">
          <g class="stroke-shape">
            <path rx="0" ry="0" d="M162.898,37.749L108.312,57.990L72.005,64.237C72.005,64.237,67.662,69.734,73.317,76.200C77.410,80.854,84.284,84.196,93.689,84.290C104.281,84.384,108.562,80.230,109.749,83.759C110.937,87.289,96.314,96.004,88.284,100.720C80.254,105.437,54.008,113.558,52.852,125.302C51.977,134.330,60.975,140.327,65.412,141.732C71.068,143.513,79.098,143.138,81.441,143.388C83.784,143.638,84.503,148.104,81.191,150.916C77.879,153.758,68.943,156.819,62.819,159.162C56.695,161.504,31.699,169.782,28.387,171.188C25.075,172.593,21.325,178.497,24.137,187.211C26.981,195.926,37.104,202.517,46.290,205.828C55.476,209.139,58.070,207.702,58.070,207.702C58.070,207.702,56.789,212.700,52.195,216.854C47.602,221.008,33.073,236.470,33.073,236.470C33.073,236.470,5.609,237.188,3.203,239.156C0.797,241.124,-0.734,245.934,0.359,250.526C1.453,255.117,4.953,266.706,26.824,273.047C48.696,279.387,63.350,273.047,63.350,273.047C63.350,273.047,56.101,286.978,72.755,293.600C85.316,298.597,104.469,292.725,109.281,291.413C114.092,290.101,130.934,283.105,130.934,283.105C130.934,283.105,135.527,294.099,154.118,294.912C173.802,295.786,187.581,286.166,187.581,286.166C187.581,286.166,214.827,302.814,235.699,294.037C250.791,287.696,245.979,272.609,245.979,272.609C245.979,272.609,272.444,277.201,291.691,269.548C310.938,261.896,314.000,251.400,314.000,246.153C314.000,240.905,306.345,236.470,302.845,236.688C299.346,236.907,289.066,235.658,282.942,233.034C276.818,230.410,268.569,226.131,268.569,226.131C268.569,226.131,254.259,221.446,244.885,213.356C240.980,210.013,241.386,206.577,247.073,206.359C252.759,206.140,270.007,206.296,279.880,199.143C290.254,191.616,290.254,184.900,289.722,181.870C288.941,177.528,284.317,175.779,284.317,175.779C284.317,175.779,244.698,163.285,243.823,162.192C242.948,161.098,236.605,153.883,235.949,153.227C235.293,152.571,224.138,148.417,226.544,145.137C228.950,141.857,241.605,141.764,248.854,134.205C257.321,125.365,254.978,117.369,252.134,114.308C249.291,111.246,244.167,109.653,244.167,109.653C244.167,109.653,234.543,112.496,231.262,110.965C227.982,109.435,212.359,94.442,212.359,94.442C212.359,94.442,199.080,87.039,199.236,84.790C199.455,81.729,212.859,84.884,223.951,81.292C233.918,78.074,233.543,71.203,232.918,68.610C231.950,64.549,228.357,62.863,225.951,61.113C223.514,59.395,162.898,37.749,162.898,37.749ZZ" style="fill: none; stroke-width: 2.91223; stroke: rgb(0, 0, 0); stroke-opacity: 1;"/>
          </g>
        </g>
      </g>
      <g id="shape-49e27736-5831-8072-8003-802163812afe">
        <g class="fills" id="fills-49e27736-5831-8072-8003-802163812afe">
          <path rx="0" ry="0" d="M156.405,0.000C156.405,0.000,138.932,20.379,119.517,34.935C91.761,55.741,71.755,64.424,71.755,64.424C71.755,64.424,74.598,72.733,89.690,72.296C106.750,71.796,129.059,59.614,129.059,59.614C129.059,59.614,135.620,75.357,143.713,84.540C153.430,95.566,164.866,103.594,176.302,97.659C180.614,95.410,181.489,86.039,176.302,79.511C163.554,63.456,171.771,64.643,172.677,65.455C172.677,65.455,182.645,73.170,200.986,72.952C219.327,72.733,225.919,61.145,225.919,61.145C225.919,61.145,203.488,47.221,186.498,32.024C168.054,15.527,156.405,0.000,156.405,0.000ZL156.405,0.000ZL156.405,0.000Z" style="fill: rgb(2, 171, 72);"/>
        </g>
        <g id="strokes-49e27736-5831-8072-8003-802163812afe" class="strokes">
          <g class="stroke-shape">
            <path rx="0" ry="0" d="M156.405,0.000C156.405,0.000,138.932,20.379,119.517,34.935C91.761,55.741,71.755,64.424,71.755,64.424C71.755,64.424,74.598,72.733,89.690,72.296C106.750,71.796,129.059,59.614,129.059,59.614C129.059,59.614,135.620,75.357,143.713,84.540C153.430,95.566,164.866,103.594,176.302,97.659C180.614,95.410,181.489,86.039,176.302,79.511C163.554,63.456,171.771,64.643,172.677,65.455C172.677,65.455,182.645,73.170,200.986,72.952C219.327,72.733,225.919,61.145,225.919,61.145C225.919,61.145,203.488,47.221,186.498,32.024C168.054,15.527,156.405,0.000,156.405,0.000ZL156.405,0.000ZL156.405,0.000Z" style="fill: none; stroke-width: 2.91223; stroke: rgb(0, 0, 0); stroke-opacity: 1;"/>
          </g>
        </g>
      </g>
      <g id="shape-49e27736-5831-8072-8003-8021638211fd">
        <g class="fills" id="fills-49e27736-5831-8072-8003-8021638211fd">
          <path rx="0" ry="0" d="M131.246,91.943C131.215,91.974,120.623,98.784,108.718,97.846C103.563,97.440,99.907,93.598,99.907,93.598C99.907,93.598,88.096,100.533,82.253,103.531C75.036,107.248,65.787,110.934,60.913,114.464C58.507,116.213,55.133,119.930,55.133,119.930C55.133,119.930,56.882,128.020,72.192,128.020C87.503,128.020,97.782,126.052,107.187,128.676C116.592,131.300,131.246,145.949,141.526,145.949C151.806,145.949,159.023,132.174,168.865,132.174C178.708,132.174,181.332,137.203,196.424,138.734C211.515,140.264,235.356,131.518,240.823,126.271C248.229,119.149,244.198,109.653,244.198,109.653C244.198,109.653,234.606,105.812,225.982,101.626C218.514,98.003,212.421,94.567,212.421,94.567C212.421,94.567,208.922,98.502,204.985,98.284C201.048,98.065,195.393,95.816,190.800,99.315C186.207,102.813,183.457,108.310,174.365,109.653C152.024,112.933,131.246,91.943,131.246,91.943ZZ" style="fill: rgb(2, 171, 72);"/>
        </g>
        <g id="strokes-49e27736-5831-8072-8003-8021638211fd" class="strokes">
          <g class="stroke-shape">
            <path rx="0" ry="0" d="M131.246,91.943C131.215,91.974,120.623,98.784,108.718,97.846C103.563,97.440,99.907,93.598,99.907,93.598C99.907,93.598,88.096,100.533,82.253,103.531C75.036,107.248,65.787,110.934,60.913,114.464C58.507,116.213,55.133,119.930,55.133,119.930C55.133,119.930,56.882,128.020,72.192,128.020C87.503,128.020,97.782,126.052,107.187,128.676C116.592,131.300,131.246,145.949,141.526,145.949C151.806,145.949,159.023,132.174,168.865,132.174C178.708,132.174,181.332,137.203,196.424,138.734C211.515,140.264,235.356,131.518,240.823,126.271C248.229,119.149,244.198,109.653,244.198,109.653C244.198,109.653,234.606,105.812,225.982,101.626C218.514,98.003,212.421,94.567,212.421,94.567C212.421,94.567,208.922,98.502,204.985,98.284C201.048,98.065,195.393,95.816,190.800,99.315C186.207,102.813,183.457,108.310,174.365,109.653C152.024,112.933,131.246,91.943,131.246,91.943ZZ" style="fill: none; stroke-width: 2.91223; stroke: rgb(0, 0, 0); stroke-opacity: 1;"/>
          </g>
        </g>
      </g>
      <g id="shape-49e27736-5831-8072-8003-8021638395a4">
        <g class="fills" id="fills-49e27736-5831-8072-8003-8021638395a4">
          <path rx="0" ry="0" d="M28.262,171.312C28.262,171.312,25.075,181.933,39.760,188.523C54.445,195.114,82.035,189.273,83.316,190.554C84.597,191.834,60.694,204.766,73.192,215.355C88.128,228.005,126.622,190.304,129.153,190.304C131.684,190.304,132.965,221.446,148.400,227.005C163.835,232.565,179.020,209.795,188.394,207.015C197.767,204.235,204.610,212.575,216.733,213.074C232.731,213.730,240.542,209.545,241.542,202.954C242.542,196.363,228.388,184.494,231.419,181.964C234.449,179.434,239.761,188.804,261.039,187.274C282.317,185.743,284.442,175.779,284.442,175.779L235.824,153.258C235.824,153.258,229.138,161.223,218.514,161.473C207.891,161.723,181.051,157.163,170.428,160.193C159.804,163.222,156.492,175.373,138.776,174.623C121.060,173.874,109.156,161.973,97.001,167.783C84.847,173.593,75.942,181.027,69.193,176.872C65.319,174.467,65.725,171.031,66.068,165.690C66.318,161.629,67.881,157.350,67.881,157.350L28.262,171.312ZZ" style="fill: rgb(2, 171, 72);"/>
        </g>
        <g id="strokes-49e27736-5831-8072-8003-8021638395a4" class="strokes">
          <g class="stroke-shape">
            <path rx="0" ry="0" d="M28.262,171.312C28.262,171.312,25.075,181.933,39.760,188.523C54.445,195.114,82.035,189.273,83.316,190.554C84.597,191.834,60.694,204.766,73.192,215.355C88.128,228.005,126.622,190.304,129.153,190.304C131.684,190.304,132.965,221.446,148.400,227.005C163.835,232.565,179.020,209.795,188.394,207.015C197.767,204.235,204.610,212.575,216.733,213.074C232.731,213.730,240.542,209.545,241.542,202.954C242.542,196.363,228.388,184.494,231.419,181.964C234.449,179.434,239.761,188.804,261.039,187.274C282.317,185.743,284.442,175.779,284.442,175.779L235.824,153.258C235.824,153.258,229.138,161.223,218.514,161.473C207.891,161.723,181.051,157.163,170.428,160.193C159.804,163.222,156.492,175.373,138.776,174.623C121.060,173.874,109.156,161.973,97.001,167.783C84.847,173.593,75.942,181.027,69.193,176.872C65.319,174.467,65.725,171.031,66.068,165.690C66.318,161.629,67.881,157.350,67.881,157.350L28.262,171.312ZZ" style="fill: none; stroke-width: 2.91223; stroke: rgb(0, 0, 0); stroke-opacity: 1;"/>
          </g>
        </g>
      </g>
      <g id="shape-49e27736-5831-8072-8003-80216384b710">
        <g class="fills" id="fills-49e27736-5831-8072-8003-80216384b710">
          <path rx="0" ry="0" d="M3.078,239.281C3.078,239.281,9.889,257.897,43.103,257.897C71.474,257.897,81.441,242.155,86.815,237.657C92.158,233.159,96.033,226.849,97.751,229.629C99.470,232.409,80.597,252.775,72.880,260.271C68.568,264.457,63.225,272.484,71.380,277.638C79.535,282.792,98.595,280.418,114.030,273.796C129.465,267.174,133.964,253.431,133.964,253.431C133.964,253.431,122.404,248.933,120.248,235.002C118.092,221.071,117.467,215.167,112.968,214.542C108.468,213.887,76.411,240.031,56.570,231.566C47.134,227.536,52.039,217.010,52.039,217.010C52.039,217.010,42.947,224.194,30.730,228.848C21.388,232.378,3.078,239.281,3.078,239.281ZZ" style="fill: rgb(2, 171, 72);"/>
        </g>
        <g id="strokes-49e27736-5831-8072-8003-80216384b710" class="strokes">
          <g class="stroke-shape">
            <path rx="0" ry="0" d="M3.078,239.281C3.078,239.281,9.889,257.897,43.103,257.897C71.474,257.897,81.441,242.155,86.815,237.657C92.158,233.159,96.033,226.849,97.751,229.629C99.470,232.409,80.597,252.775,72.880,260.271C68.568,264.457,63.225,272.484,71.380,277.638C79.535,282.792,98.595,280.418,114.030,273.796C129.465,267.174,133.964,253.431,133.964,253.431C133.964,253.431,122.404,248.933,120.248,235.002C118.092,221.071,117.467,215.167,112.968,214.542C108.468,213.887,76.411,240.031,56.570,231.566C47.134,227.536,52.039,217.010,52.039,217.010C52.039,217.010,42.947,224.194,30.730,228.848C21.388,232.378,3.078,239.281,3.078,239.281ZZ" style="fill: none; stroke-width: 2.91223; stroke: rgb(0, 0, 0); stroke-opacity: 1;"/>
          </g>
        </g>
      </g>
      <g id="shape-49e27736-5831-8072-8003-802163856042">
        <g class="fills" id="fills-49e27736-5831-8072-8003-802163856042">
          <path rx="0" ry="0" d="M140.214,254.493C140.214,254.493,136.214,266.987,137.027,270.048C138.558,275.889,144.275,281.918,158.648,280.824C173.021,279.762,180.926,274.390,180.739,269.673C180.551,264.957,171.303,253.181,175.802,250.182C180.301,247.184,183.520,254.024,188.019,261.333C192.518,268.642,212.015,292.194,232.606,281.043C251.447,270.829,226.169,250.620,231.325,247.402C236.480,244.185,248.697,255.524,267.319,254.680C300.315,253.181,304.814,236.907,304.814,236.907C304.814,236.907,292.160,233.690,284.879,231.753C277.599,229.817,268.569,226.162,268.569,226.162C268.569,226.162,253.790,233.690,233.231,233.034C212.671,232.378,200.423,224.257,191.643,225.756C182.863,227.255,176.208,239.656,165.272,246.746C150.056,256.617,140.214,254.493,140.214,254.493ZZ" style="fill: rgb(2, 171, 72);"/>
        </g>
        <g id="strokes-49e27736-5831-8072-8003-802163856042" class="strokes">
          <g class="stroke-shape">
            <path rx="0" ry="0" d="M140.214,254.493C140.214,254.493,136.214,266.987,137.027,270.048C138.558,275.889,144.275,281.918,158.648,280.824C173.021,279.762,180.926,274.390,180.739,269.673C180.551,264.957,171.303,253.181,175.802,250.182C180.301,247.184,183.520,254.024,188.019,261.333C192.518,268.642,212.015,292.194,232.606,281.043C251.447,270.829,226.169,250.620,231.325,247.402C236.480,244.185,248.697,255.524,267.319,254.680C300.315,253.181,304.814,236.907,304.814,236.907C304.814,236.907,292.160,233.690,284.879,231.753C277.599,229.817,268.569,226.162,268.569,226.162C268.569,226.162,253.790,233.690,233.231,233.034C212.671,232.378,200.423,224.257,191.643,225.756C182.863,227.255,176.208,239.656,165.272,246.746C150.056,256.617,140.214,254.493,140.214,254.493ZZ" style="fill: none; stroke-width: 2.91223; stroke: rgb(0, 0, 0); stroke-opacity: 1;"/>
          </g>
        </g>
      </g>
    </g>
    <g id="shape-49e27736-5831-8072-8003-802163878330">
      <g class="fills" id="fills-49e27736-5831-8072-8003-802163878330">
        <path rx="0" ry="0" d="M159.965,25.805C148.841,25.961,143.905,33.582,144.030,42.765C144.155,51.949,150.747,58.165,161.121,58.040C171.494,57.915,176.900,50.793,176.525,40.829C176.212,32.145,170.057,25.680,159.965,25.805ZZ" style="fill: rgb(255, 95, 94);"/>
      </g>
    </g>
    <g id="shape-49e27736-5831-8072-8003-80216387dcd3">
      <g class="fills" id="fills-49e27736-5831-8072-8003-80216387dcd3">
        <path rx="0" ry="0" d="M200.892,93.567C189.769,93.723,183.301,101.970,183.426,111.153C183.551,120.336,190.550,127.458,201.673,127.333C213.078,127.208,218.764,119.055,218.358,109.091C218.046,100.439,210.984,93.442,200.892,93.567ZZ" style="fill: rgb(252, 216, 30);"/>
      </g>
    </g>
    <g id="shape-49e27736-5831-8072-8003-802163880ab2">
      <g class="fills" id="fills-49e27736-5831-8072-8003-802163880ab2">
        <path rx="0" ry="0" d="M126.184,96.784C114.530,96.941,108.312,104.999,108.437,114.776C108.562,124.553,116.373,131.487,127.215,131.331C138.058,131.206,144.057,123.428,143.651,112.840C143.307,103.594,136.745,96.659,126.184,96.784ZL126.184,96.784Z" style="fill: rgb(223, 14, 43);"/>
      </g>
    </g>
    <g id="shape-49e27736-5831-8072-8003-8021638841d6">
      <g class="fills" id="fills-49e27736-5831-8072-8003-8021638841d6">
        <path rx="0" ry="0" d="M95.408,155.945C83.628,156.070,77.817,164.753,77.942,174.967C78.098,185.181,85.222,191.928,96.689,191.772C108.156,191.616,114.186,183.713,113.780,172.624C113.405,163.004,106.594,155.820,95.408,155.945ZZ" style="fill: rgb(255, 210, 177);"/>
      </g>
    </g>
    <g id="shape-49e27736-5831-8072-8003-80216388badb">
      <g class="fills" id="fills-49e27736-5831-8072-8003-80216388badb">
        <path rx="0" ry="0" d="M161.117,173.718C148.744,173.874,143.276,182.339,143.432,192.553C143.588,202.767,150.899,209.670,162.398,209.514C173.896,209.357,179.926,201.455,179.520,190.397C179.145,180.777,172.334,173.593,161.117,173.718ZZ" style="fill: rgb(252, 216, 30);"/>
      </g>
    </g>
    <g id="shape-49e27736-5831-8072-8003-80216389222a">
      <g class="fills" id="fills-49e27736-5831-8072-8003-80216389222a">
        <path rx="0" ry="0" d="M220.483,156.070C208.016,156.226,201.923,164.878,202.048,175.217C202.204,185.556,209.453,193.209,221.076,193.084C232.668,192.927,239.480,184.213,239.042,172.999C238.699,163.222,231.825,155.945,220.483,156.070ZZ" style="fill: rgb(255, 95, 93);"/>
      </g>
    </g>
    <g id="shape-49e27736-5831-8072-8003-8021638977de">
      <g class="fills" id="fills-49e27736-5831-8072-8003-8021638977de">
        <path rx="0" ry="0" d="M226.888,244.154C227.450,232.753,220.701,226.756,211.328,226.193C201.954,225.631,194.862,231.347,194.205,241.936C193.549,252.525,199.955,259.615,210.141,259.959C219.014,260.271,226.357,255.055,226.888,244.154ZZ" style="fill: rgb(201, 201, 201);"/>
      </g>
    </g>
    <g id="shape-49e27736-5831-8072-8003-802163899495">
      <g class="fills" id="fills-49e27736-5831-8072-8003-802163899495">
        <path rx="0" ry="0" d="M100.532,227.255C88.940,227.412,83.816,235.220,83.941,244.622C84.066,254.024,90.940,260.396,101.719,260.271C112.499,260.146,118.154,252.837,117.748,242.654C117.436,233.721,111.062,227.099,100.532,227.255ZZ" style="fill: rgb(255, 95, 94);"/>
      </g>
    </g>
    <g id="shape-49e27736-5831-8072-8003-8021638b793b">
      <g class="fills" id="fills-49e27736-5831-8072-8003-8021638b793b">
        <path rx="0" ry="0" d="M89.596,244.310C92.971,246.122,94.252,241.218,95.939,239.531C97.626,237.844,101.626,235.002,99.688,232.534C97.751,230.067,92.814,231.472,90.502,234.096C87.378,237.594,86.847,242.842,89.596,244.310ZZ" style="fill: rgb(249, 255, 255);"/>
      </g>
    </g>
    <g id="shape-49e27736-5831-8072-8003-8021638bde43">
      <g class="fills" id="fills-49e27736-5831-8072-8003-8021638bde43">
        <path rx="0" ry="0" d="M200.392,243.810C203.767,245.622,205.204,240.687,206.610,238.750C208.422,236.282,212.828,234.596,210.890,232.159C208.953,229.692,204.266,231.253,201.954,233.846C198.830,237.344,197.642,242.311,200.392,243.810ZZ" style="fill: rgb(249, 255, 255);"/>
      </g>
    </g>
    <g id="shape-49e27736-5831-8072-8003-8021638c18bc">
      <g class="fills" id="fills-49e27736-5831-8072-8003-8021638c18bc">
        <path rx="0" ry="0" d="M208.984,174.311C212.703,176.216,214.109,170.844,215.921,168.626C217.546,166.658,222.295,164.534,220.139,161.942C217.983,159.349,212.921,160.724,210.359,163.441C206.922,167.127,205.954,172.749,208.984,174.311ZZ" style="fill: rgb(249, 255, 255);"/>
      </g>
    </g>
    <g id="shape-49e27736-5831-8072-8003-8021638cb2b5">
      <g class="fills" id="fills-49e27736-5831-8072-8003-8021638cb2b5">
        <path rx="0" ry="0" d="M150.181,192.178C153.555,193.989,154.836,189.085,156.524,187.399C158.211,185.712,162.210,181.964,160.273,179.496C158.336,177.029,153.555,178.590,151.087,181.964C148.337,185.743,147.431,190.710,150.181,192.178ZZ" style="fill: rgb(249, 255, 255);"/>
      </g>
    </g>
    <g id="shape-49e27736-5831-8072-8003-8021638cf582">
      <g class="fills" id="fills-49e27736-5831-8072-8003-8021638cf582">
        <path rx="0" ry="0" d="M84.284,174.436C87.659,176.248,89.784,171.125,91.252,169.251C94.095,165.628,96.814,163.691,94.877,161.223C92.939,158.756,87.753,160.849,85.191,164.191C82.378,167.939,81.566,172.968,84.284,174.436ZZ" style="fill: rgb(249, 255, 255);"/>
      </g>
    </g>
    <g id="shape-49e27736-5831-8072-8003-8021638d495b">
      <g class="fills" id="fills-49e27736-5831-8072-8003-8021638d495b">
        <path rx="0" ry="0" d="M115.186,114.651C118.561,116.463,120.185,111.809,121.529,109.872C123.591,106.905,127.465,104.437,125.528,101.970C123.591,99.502,118.935,100.814,116.092,104.437C113.218,108.092,112.436,113.152,115.186,114.651ZZ" style="fill: rgb(249, 255, 255);"/>
      </g>
    </g>
    <g id="shape-49e27736-5831-8072-8003-8021638de6ef">
      <g class="fills" id="fills-49e27736-5831-8072-8003-8021638de6ef">
        <path rx="0" ry="0" d="M190.487,113.058C194.174,115.057,195.580,109.653,197.424,107.811C199.267,105.968,203.673,102.844,201.548,100.158C199.423,97.472,194.018,99.002,191.487,101.845C188.050,105.687,187.456,111.465,190.487,113.058ZZ" style="fill: rgb(249, 255, 255);"/>
      </g>
    </g>
    <g id="shape-49e27736-5831-8072-8003-8021638e26de">
      <g class="fills" id="fills-49e27736-5831-8072-8003-8021638e26de">
        <path rx="0" ry="0" d="M148.841,42.484C152.216,44.296,153.497,39.392,155.184,37.705C156.872,36.019,160.871,33.176,158.934,30.708C156.997,28.241,153.091,29.553,150.248,32.895C147.248,36.487,146.092,41.016,148.841,42.484ZZ" style="fill: rgb(249, 255, 255);"/>
      </g>
    </g>
    <g id="shape-f355ad4f-9a9c-801f-8003-804ec43a23b8" rx="0" ry="0">
      <g id="shape-f355ad4f-9a9c-801f-8003-805099bb69ba" rx="0" ry="0" filter="url(#filter_rumext-id-27)">
        <defs>
          <filter id="filter_rumext-id-27" x="-0.35515063357798626" y="-0.2529265576902178" width="1.7103012671559725" height="1.5058531153804358" filterUnits="objectBoundingBox" color-interpolation-filters="sRGB">
            <feFlood flood-opacity="0" result="BackgroundImageFix"/>
            <feColorMatrix in="SourceAlpha" type="matrix" values="0 0 0 0 0 0 0 0 0 0 0 0 0 0 0 0 0 0 127 0"/>
            <feMorphology radius="1.941489657718893" operator="dilate" in="SourceAlpha" result="filter_1690f01f-f710-803e-8003-80aec48846cf"/>
            <feOffset dx="0" dy="0"/>
            <feGaussianBlur stdDeviation="3.882979315437786"/>
            <feColorMatrix type="matrix" values="0 0 0 0 0.3803921568627451 0 0 0 0 1 0 0 0 0 0.34509803921568627 0 0 0 1 0"/>
            <feBlend mode="normal" in2="BackgroundImageFix" result="filter_1690f01f-f710-803e-8003-80aec48846cf"/>
            <feBlend mode="normal" in="SourceGraphic" in2="filter_1690f01f-f710-803e-8003-80aec48846cf" result="shape"/>
          </filter>
        </defs>
        <g id="shape-49e27736-5831-8072-8003-8021638ef663">
          <g class="fills" id="fills-49e27736-5831-8072-8003-8021638ef663">
            <path rx="0" ry="0" d="M134.275,65.208C130.271,62.575,126.822,64.341,125.159,66.492C122.787,69.542,123.157,74.198,126.483,76.093C130.826,78.565,134.306,76.671,135.722,74.455C137.878,71.116,137.232,67.166,134.275,65.208ZL134.275,65.208Z" style="fill: rgb(97, 255, 88); fill-opacity: 1;"/>
          </g>
        </g>
        <g id="shape-49e27736-5831-8072-8003-8021638f9c8f">
          <g class="fills" id="fills-49e27736-5831-8072-8003-8021638f9c8f">
            <path rx="0" ry="0" d="M207.185,53.651C203.378,50.647,199.476,51.785,197.494,54.283C195.228,57.130,195.039,60.830,197.903,63.486C201.301,66.617,206.053,64.973,207.720,62.822C209.640,60.387,209.734,55.675,207.185,53.651ZZ" style="fill: rgb(97, 255, 88); fill-opacity: 1;"/>
          </g>
        </g>
        <g id="shape-49e27736-5831-8072-8003-80216390d2d2">
          <g class="fills" id="fills-49e27736-5831-8072-8003-80216390d2d2">
            <path rx="0" ry="0" d="M145.134,156.751C145.006,151.423,142.644,149.058,137.952,148.759C133.355,148.459,130.642,151.423,130.451,155.752C130.195,161.812,135.207,163.544,138.335,163.444C141.910,163.311,145.229,160.347,145.134,156.751ZZ" style="fill: rgb(97, 255, 88); fill-opacity: 1;"/>
          </g>
        </g>
        <g id="shape-49e27736-5831-8072-8003-80216391f882">
          <g class="fills" id="fills-49e27736-5831-8072-8003-80216391f882">
            <path rx="0" ry="0" d="M217.424,131.487C218.385,135.815,221.673,137.458,225.797,136.384C229.798,135.341,231.348,132.024,230.325,128.233C228.898,122.926,224.091,122.831,221.424,123.810C218.416,124.884,216.742,128.296,217.424,131.487ZZ" style="fill: rgb(97, 255, 88); fill-opacity: 1;"/>
          </g>
        </g>
        <g id="shape-49e27736-5831-8072-8003-80216392bfea">
          <g class="fills" id="fills-49e27736-5831-8072-8003-80216392bfea">
            <path rx="0" ry="0" d="M213.686,205.588C208.546,205.810,205.754,209.336,206.071,214.417C206.388,219.372,209.974,221.881,214.637,221.468C221.173,220.896,222.347,215.275,221.808,211.908C221.205,208.129,217.588,205.398,213.686,205.588ZZ" style="fill: rgb(97, 255, 88); fill-opacity: 1;"/>
          </g>
        </g>
        <g id="shape-49e27736-5831-8072-8003-80216392fdfd">
          <g class="fills" id="fills-49e27736-5831-8072-8003-80216392fdfd">
            <path rx="0" ry="0" d="M114.101,210.262C108.896,210.492,106.180,214.638,106.409,219.178C106.638,224.147,110.337,226.680,115.050,226.252C121.661,225.660,122.840,220.001,122.316,216.645C121.694,212.795,118.028,210.064,114.101,210.262ZZ" style="fill: rgb(97, 255, 88); fill-opacity: 1;"/>
          </g>
        </g>
      </g>
      <g id="shape-f355ad4f-9a9c-801f-8003-805070e30fec" rx="0" ry="0" filter="url(#filter_rumext-id-34)">
        <defs>
          <filter id="filter_rumext-id-34" x="-0.2327912809737122" y="-0.23801082888541497" width="1.4655825619474248" height="1.4760216577708298" filterUnits="objectBoundingBox" color-interpolation-filters="sRGB">
            <feFlood flood-opacity="0" result="BackgroundImageFix"/>
            <feColorMatrix in="SourceAlpha" type="matrix" values="0 0 0 0 0 0 0 0 0 0 0 0 0 0 0 0 0 0 127 0"/>
            <feMorphology radius="1.941489657718893" operator="dilate" in="SourceAlpha" result="filter_1690f01f-f710-803e-8003-80aebb6c106f"/>
            <feOffset dx="0" dy="0"/>
            <feGaussianBlur stdDeviation="3.882979315437786"/>
            <feColorMatrix type="matrix" values="0 0 0 0 1 0 0 0 0 0.24313725490196078 0 0 0 0 0.24313725490196078 0 0 0 1 0"/>
            <feBlend mode="normal" in2="BackgroundImageFix" result="filter_1690f01f-f710-803e-8003-80aebb6c106f"/>
            <feBlend mode="normal" in="SourceGraphic" in2="filter_1690f01f-f710-803e-8003-80aebb6c106f" result="shape"/>
          </filter>
        </defs>
        <g id="shape-49e27736-5831-8072-8003-8021638e7a18">
          <g class="fills" id="fills-49e27736-5831-8072-8003-8021638e7a18">
            <path rx="0" ry="0" d="M113.740,46.503C108.890,46.503,106.685,48.566,106.307,52.850C105.929,57.008,108.543,59.572,112.449,59.853C117.929,60.228,119.629,55.726,119.629,52.850C119.598,49.598,116.984,46.503,113.740,46.503ZL113.740,46.503Z" style="fill: rgb(255, 62, 62); fill-opacity: 1;"/>
          </g>
        </g>
        <g id="shape-49e27736-5831-8072-8003-8021638f9c90">
          <g class="fills" id="fills-49e27736-5831-8072-8003-8021638f9c90">
            <path rx="0" ry="0" d="M185.900,71.911C181.063,71.911,178.847,73.965,178.442,78.197C178.067,82.305,180.813,84.982,184.714,85.262C190.206,85.635,191.766,81.029,191.766,78.197C191.797,74.992,189.176,71.911,185.900,71.911ZL185.900,71.911Z" style="fill: rgb(255, 62, 62); fill-opacity: 1;"/>
          </g>
        </g>
        <g id="shape-49e27736-5831-8072-8003-8021639064e7">
          <g class="fills" id="fills-49e27736-5831-8072-8003-8021639064e7">
            <path rx="0" ry="0" d="M115.464,135.987C110.447,134.383,107.740,135.920,105.694,140.164C104.043,143.606,105.694,148.184,109.721,149.554C115.530,151.492,118.500,147.616,119.424,144.608C120.514,141.200,118.830,137.056,115.464,135.987ZZ" style="fill: rgb(255, 62, 62); fill-opacity: 1;"/>
          </g>
        </g>
        <g id="shape-49e27736-5831-8072-8003-8021639169d2">
          <g class="fills" id="fills-49e27736-5831-8072-8003-8021639169d2">
            <path rx="0" ry="0" d="M199.360,138.040C194.510,138.040,192.305,140.103,191.927,144.387C191.549,148.545,194.163,151.109,198.069,151.390C203.549,151.766,205.250,147.263,205.250,144.387C205.218,141.166,202.604,138.040,199.360,138.040ZZ" style="fill: rgb(255, 62, 62); fill-opacity: 1;"/>
          </g>
        </g>
        <g id="shape-49e27736-5831-8072-8003-802163921418">
          <g class="fills" id="fills-49e27736-5831-8072-8003-802163921418">
            <path rx="0" ry="0" d="M260.895,177.703C256.263,177.703,254.137,179.736,253.757,183.896C253.376,187.961,255.882,190.470,259.658,190.724C264.924,191.106,266.543,186.691,266.543,183.896C266.543,180.752,264.036,177.703,260.895,177.703ZZ" style="fill: rgb(255, 62, 62); fill-opacity: 1;"/>
          </g>
        </g>
        <g id="shape-49e27736-5831-8072-8003-80216392fdfb">
          <g class="fills" id="fills-49e27736-5831-8072-8003-80216392fdfb">
            <path rx="0" ry="0" d="M183.926,216.196C178.691,215.529,175.550,218.610,175.074,223.628C174.630,228.487,177.739,231.409,182.371,231.822C189.859,232.521,190.906,226.994,190.906,223.628C190.906,219.848,187.765,216.672,183.926,216.196ZZ" style="fill: rgb(255, 62, 62); fill-opacity: 1;"/>
          </g>
        </g>
        <g id="shape-49e27736-5831-8072-8003-802163931c4a">
          <g class="fills" id="fills-49e27736-5831-8072-8003-802163931c4a">
            <path rx="0" ry="0" d="M84.734,198.224C79.523,198.455,76.704,202.024,77.032,207.145C77.360,212.135,80.932,214.646,85.651,214.216C92.271,213.622,93.451,207.971,92.927,204.568C92.337,200.768,88.666,198.058,84.734,198.224ZZ" style="fill: rgb(255, 62, 62); fill-opacity: 1;"/>
          </g>
        </g>
      </g>
      <g id="shape-f355ad4f-9a9c-801f-8003-8050ab7b802b" rx="0" ry="0" filter="url(#filter_rumext-id-42)">
        <defs>
          <filter id="filter_rumext-id-42" x="-0.236172359473848" y="-0.2707934502826728" width="1.4723447189476961" height="1.5415869005653455" filterUnits="objectBoundingBox" color-interpolation-filters="sRGB">
            <feFlood flood-opacity="0" result="BackgroundImageFix"/>
            <feColorMatrix in="SourceAlpha" type="matrix" values="0 0 0 0 0 0 0 0 0 0 0 0 0 0 0 0 0 0 127 0"/>
            <feMorphology radius="1.941489657718893" operator="dilate" in="SourceAlpha" result="filter_1690f01f-f710-803e-8003-80ae6c13789e"/>
            <feOffset dx="0" dy="0"/>
            <feGaussianBlur stdDeviation="3.882979315437786"/>
            <feColorMatrix type="matrix" values="0 0 0 0 0.14901960784313725 0 0 0 0 0.4549019607843137 0 0 0 0 1 0 0 0 1 0"/>
            <feBlend mode="normal" in2="BackgroundImageFix" result="filter_1690f01f-f710-803e-8003-80ae6c13789e"/>
            <feBlend mode="normal" in="SourceGraphic" in2="filter_1690f01f-f710-803e-8003-80ae6c13789e" result="shape"/>
          </filter>
        </defs>
        <g id="shape-49e27736-5831-8072-8003-8021638f5a02">
          <g class="fills" id="fills-49e27736-5831-8072-8003-8021638f5a02">
            <path rx="0" ry="0" d="M154.512,73.351C150.333,74.131,148.384,77.469,149.201,81.682C149.830,84.989,153.506,87.329,157.277,86.424C162.618,85.176,162.870,80.340,161.990,77.625C161.047,74.568,157.716,72.789,154.512,73.351ZL154.512,73.351Z" style="fill: rgb(38, 116, 255); fill-opacity: 1;"/>
          </g>
        </g>
        <g id="shape-49e27736-5831-8072-8003-8021639064e6">
          <g class="fills" id="fills-49e27736-5831-8072-8003-8021639064e6">
            <path rx="0" ry="0" d="M92.516,117.981C87.666,117.981,85.455,120.056,85.056,124.330C84.688,128.479,87.297,131.050,91.196,131.329C96.692,131.731,98.380,127.179,98.380,124.330C98.380,121.078,95.771,117.981,92.516,117.981ZZ" style="fill: rgb(38, 116, 255); fill-opacity: 1;"/>
          </g>
        </g>
        <g id="shape-49e27736-5831-8072-8003-802163911fbd">
          <g class="fills" id="fills-49e27736-5831-8072-8003-802163911fbd">
            <path rx="0" ry="0" d="M169.405,147.401C164.079,147.401,161.659,149.675,161.207,154.386C160.787,158.966,163.660,161.760,167.953,162.085C173.988,162.508,175.861,157.537,175.861,154.386C175.861,150.812,172.988,147.401,169.405,147.401ZZ" style="fill: rgb(38, 116, 255); fill-opacity: 1;"/>
          </g>
        </g>
        <g id="shape-49e27736-5831-8072-8003-802163924d2a">
          <g class="fills" id="fills-49e27736-5831-8072-8003-802163924d2a">
            <path rx="0" ry="0" d="M246.396,202.285C246.872,196.918,244.810,194.282,240.114,193.424C235.545,192.598,232.468,195.234,231.770,199.522C230.786,205.556,235.641,207.875,238.813,208.161C242.398,208.478,246.079,205.906,246.396,202.285ZZ" style="fill: rgb(38, 116, 255); fill-opacity: 1;"/>
          </g>
        </g>
        <g id="shape-49e27736-5831-8072-8003-80216392fdfc">
          <g class="fills" id="fills-49e27736-5831-8072-8003-80216392fdfc">
            <path rx="0" ry="0" d="M146.710,220.261C141.571,220.484,138.779,224.009,139.096,229.090C139.413,234.045,142.998,236.554,147.662,236.141C154.198,235.569,155.372,229.948,154.832,226.581C154.261,222.802,150.613,220.102,146.710,220.261ZZ" style="fill: rgb(38, 116, 255); fill-opacity: 1;"/>
          </g>
        </g>
        <g id="shape-49e27736-5831-8072-8003-802163931c4b">
          <g class="fills" id="fills-49e27736-5831-8072-8003-802163931c4b">
            <path rx="0" ry="0" d="M66.072,172.814C61.726,173.002,59.378,175.958,59.664,180.234C59.949,184.384,62.931,186.490,66.865,186.144C72.386,185.673,73.369,180.957,72.893,178.127C72.417,174.952,69.340,172.688,66.072,172.814ZZ" style="fill: rgb(38, 116, 255); fill-opacity: 1;"/>
          </g>
        </g>
      </g>
    </g>
  </g>
</svg>